<svg xmlns="http://www.w3.org/2000/svg" viewBox="0 0 500 500"><g id="freepik--Jar--inject-2"><g id="freepik--jar--inject-2"><g id="freepik--jar--inject-2"><path d="M259.73,187c0-12.78-8.53-25.57-25.59-35.31-34.11-19.51-89.43-19.51-123.54,0-16,9.14-24.49,20.94-25.49,32.91-.07.8-.1,1.6-.1,2.4v11a26.28,26.28,0,0,0,.1,2.66c1,12,9.5,23.77,25.49,32.91,34.11,19.51,89.43,19.51,123.54,0,17.06-9.75,25.59-22.53,25.59-35.31Z" style="fill:#10B981"></path><path d="M262,174.08c0-13.11-8.75-26.23-26.25-36.24-35-20-91.79-20-126.8,0-16.4,9.39-25.13,21.5-26.15,33.78-.07.82-.11,1.64-.11,2.46s0,10.56,0,11.29c0,.91,0,1.82.11,2.73,1,12.29,9.75,24.39,26.15,33.78,35,20,91.79,20,126.8,0,17.5-10,26.25-23.13,26.25-36.24Z" style="fill:#10B981"></path><path d="M259.73,187c0-12.78-8.53-25.57-25.59-35.31-34.11-19.51-89.43-19.51-123.54,0-16,9.14-24.49,20.94-25.49,32.91-.07.8-.1,1.6-.1,2.4v11a26.28,26.28,0,0,0,.1,2.66c1,12,9.5,23.77,25.49,32.91,34.11,19.51,89.43,19.51,123.54,0,17.06-9.75,25.59-22.53,25.59-35.31Z" style="fill:#fff;opacity:0.7000000000000001"></path><path d="M270,212.54l0-.13c-1.8-12.78-11.23-25.28-28.33-35-38.25-21.86-100.26-21.86-138.5,0-17.75,10.16-27.26,23.23-28.52,36.51,0,0,0,0,0,.07a31.63,31.63,0,0,0-.51,5.73V384.23c0,14.54,9.61,29.07,28.8,40.15,38.41,22.17,100.67,22.17,139.08,0,19.21-11.08,28.81-25.61,28.81-40.15V219.69A33.32,33.32,0,0,0,270,212.54Z" style="fill:#10B981"></path><path d="M270,212.54l0-.13c-1.8-12.78-11.23-25.28-28.33-35-38.25-21.86-100.26-21.86-138.5,0-17.75,10.16-27.26,23.23-28.52,36.51,0,0,0,0,0,.07a31.63,31.63,0,0,0-.51,5.73V384.23c0,14.54,9.61,29.07,28.8,40.15,38.41,22.17,100.67,22.17,139.08,0,19.21-11.08,28.81-25.61,28.81-40.15V219.69A33.32,33.32,0,0,0,270,212.54Z" style="fill:#fff;opacity:0.7000000000000001"></path><path d="M262.86,219.68V371c0,13.27-8.86,26.55-26.58,36.67-35.42,20.26-92.88,20.26-128.31,0-16.6-9.5-25.43-21.74-26.47-34.18V219.68c0-12.3,8.87-24.2,25-33.51a95.18,95.18,0,0,1,12.32-5.92c5.87-2.34,29.59-9.49,53.33-9.49s47.56,7.15,53.43,9.49a95.18,95.18,0,0,1,12.32,5.92C254,195.48,262.86,207.38,262.86,219.68Z" style="fill:#fff;opacity:0.4"></path><path d="M263.1,371c0,13.27-8.86,26.55-26.58,36.67-35.42,20.26-92.88,20.26-128.31,0-16.6-9.5-25.43-21.74-26.47-34.18a29.58,29.58,0,0,1,0-5c1-12.42,9.87-24.68,26.47-34.18,35.43-20.26,92.89-20.26,128.31,0C254.24,344.43,263.1,357.71,263.1,371Z" style="fill:#10B981;opacity:0.30000000000000004"></path></g><path d="M259.73,187c0-12.78-8.53-25.57-25.59-35.31-34.11-19.51-89.43-19.51-123.54,0-16,9.14-24.49,20.94-25.49,32.91-.07.8-.1,1.6-.1,2.4v11a26.28,26.28,0,0,0,.1,2.66c1,12,9.5,23.77,25.49,32.91,34.11,19.51,89.43,19.51,123.54,0,17.06-9.75,25.59-22.53,25.59-35.31Z" style="fill:#10B981;opacity:0.30000000000000004"></path><path d="M259.73,187c0,12.77-8.53,25.56-25.59,35.3-34.11,19.51-89.43,19.51-123.54,0-16-9.14-24.49-20.93-25.49-32.9a27.48,27.48,0,0,1,0-4.8c1-12,9.5-23.77,25.49-32.91,34.11-19.51,89.43-19.51,123.54,0C251.2,161.4,259.73,174.19,259.73,187Z" style="fill:#fff;opacity:0.30000000000000004"></path><path d="M251.74,187c0,11.22-7.75,22.47-23.24,31-31,17.15-81.26,17.15-112.26,0-14.52-8-22.25-18.4-23.15-28.92a22.88,22.88,0,0,1,0-4.22c.9-10.52,8.63-20.89,23.15-28.93,31-17.15,81.26-17.15,112.26,0C244,164.5,251.74,175.74,251.74,187Z" style="fill:#fff;opacity:0.5"></path><path d="M228.5,173.05c-31-17.14-81.26-17.14-112.26,0-11.53,6.39-18.76,14.25-21.71,22.48,3,8.24,10.18,16.09,21.71,22.47,31,17.15,81.26,17.15,112.26,0,11.53-6.38,18.77-14.24,21.72-22.47C247.27,187.29,240,179.43,228.5,173.05Z" style="fill:#fff;opacity:0.6000000000000001"></path><path d="M262,174.08c0-13.11-8.75-26.23-26.25-36.24-35-20-91.79-20-126.8,0-16.4,9.39-25.13,21.5-26.15,33.78-.07.82-.11,1.64-.11,2.46s0,10.56,0,11.29c0,.91,0,1.82.11,2.73,1,12.29,9.75,24.39,26.15,33.78,35,20,91.79,20,126.8,0,17.5-10,26.25-23.13,26.25-36.24Z" style="fill:#fff;opacity:0.7000000000000001"></path><path d="M262,165.85c0-13.11-8.75-26.23-26.25-36.24-35-20-91.79-20-126.8,0-16.4,9.39-25.13,21.5-26.15,33.78-.07.82-.11,1.64-.11,2.46s0,18.79,0,19.52c0,.91,0,1.82.11,2.73,1,12.29,9.75,24.39,26.15,33.78,35,20,91.79,20,126.8,0,17.5-10,26.25-23.13,26.25-36.24Z" style="fill:#263238"></path><path d="M162.92,236.6l2.45.12V169.2h-2.45Zm-27.39-4.23L138,233V169.2h-2.45Zm32.87,4.47,2.45,0V169.2H168.4ZM141,233.65c.81.17,1.63.35,2.45.51v-65H141Zm5.48,1.06c.81.14,1.63.27,2.45.39V169.2h-2.45Zm10.95,1.45,2.45.23V169.2h-2.45Zm-5.47-.62,2.45.31V169.2H152Zm-21.91-4.71c.81.25,1.63.48,2.45.71V169.2h-2.45ZM91.71,208c.77.9,1.59,1.79,2.45,2.67V169.2H91.71Zm11,9.82c.79.56,1.61,1.11,2.45,1.65V169.2h-2.45Zm-5.48-4.31c.78.69,1.6,1.37,2.45,2V169.2H97.19Zm-11-13.68a40.12,40.12,0,0,0,2.46,4.19V169.2H86.23ZM124.58,229c.81.29,1.62.59,2.45.86V169.2h-2.45Zm-5.48-2.14c.81.35,1.63.67,2.45,1V169.2H119.1Zm-5.48-2.53c.81.41,1.62.81,2.45,1.19V169.2h-2.45Zm-5.48-3,.83.5c.53.3,1.09.58,1.63.88V169.2h-2.46Zm98.6,11.6,2.45-.61V169.2h-2.45Zm32.87-13.46c.83-.54,1.66-1.08,2.45-1.64V169.2h-2.45Zm-65.73,17.35,2.45,0V169.2h-2.45Zm49.29-9c.83-.33,1.65-.65,2.46-1V169.2h-2.46Zm5.48-2.33c.83-.38,1.64-.79,2.45-1.19V169.2h-2.45ZM256,169.2V204a39.51,39.51,0,0,0,2.45-4.15V169.2Zm-11,46.42q1.28-1,2.46-2V169.2h-2.46Zm5.48-4.91c.87-.89,1.69-1.78,2.45-2.68V169.2h-2.45Zm-16.43,12.06,1.64-.89.81-.49V169.2h-2.45Zm-49.3,13.62c.82-.06,1.64-.15,2.45-.22v-67h-2.45Zm-5.48.33q1.23,0,2.46-.12V169.2h-2.46Zm11-.87,2.45-.31V169.2h-2.45Zm10.95-1.69c.83-.16,1.64-.33,2.46-.51V169.2h-2.46Zm11-2.61c.82-.24,1.64-.47,2.45-.72V169.2h-2.45Zm5.48-1.68c.82-.28,1.63-.58,2.45-.87V169.2H217.7Zm-21.91,5.23c.81-.12,1.63-.24,2.45-.38V169.2h-2.45Z" style="fill:#37474f"></path><path d="M262,165.85c0,13.11-8.75,26.23-26.25,36.23-35,20-91.79,20-126.8,0-16.4-9.38-25.13-21.48-26.15-33.77a28.87,28.87,0,0,1,0-4.92c1-12.28,9.75-24.39,26.15-33.78,35-20,91.79-20,126.8,0C253.27,139.62,262,152.74,262,165.85Z" style="fill:#455a64"></path><polygon points="199.13 190.66 130.07 149.79 145.61 141.04 214.67 181.91 199.13 190.66" style="fill:#263238"></polygon><polygon points="145.61 141.04 145.51 149.95 206.9 186.28 214.67 181.91 145.61 141.04" style="fill:#37474f"></polygon><polygon points="145.61 141.04 212.77 182.04 206.9 186.28 214.67 181.91 145.61 141.04" style="fill:#fff;opacity:0.2"></polygon><polygon points="145.61 141.04 145.51 149.95 137.74 154.33 130.07 149.79 145.61 141.04" style="fill:#455a64"></polygon><polygon points="199.13 190.66 130.07 149.79 145.61 141.04 129.15 149.83 199.13 190.66" style="fill:#fff;opacity:0.2"></polygon></g></g><g id="freepik--Coins--inject-2"><path id="freepik--shadow--inject-2" d="M235.12,354c-17.45-10.07-43.43-12.19-64.48-6.38-21.06-5.81-47-3.69-64.48,6.38-22.12,12.77-22.12,33.47,0,46.24,17.44,10.07,43.42,12.19,64.48,6.38,21.05,5.81,47,3.69,64.48-6.38C257.23,387.47,257.23,366.77,235.12,354Z" style="fill:#10B981;opacity:0.30000000000000004"></path><g id="freepik--Coin--inject-2"><path d="M96.31,365.19c2.46-4.14,6.54-8,12.26-11.34,20.05-11.57,52.54-11.57,72.59,0,5.72,3.31,9.8,7.2,12.26,11.34h2.77v10.49h0c-.37,7.29-5.36,14.52-15,20.08-20,11.57-52.55,11.57-72.59,0-9.64-5.56-14.66-12.79-15-20.08h0V365.19Z" style="fill:#10B981"></path><path d="M96.31,365.19c2.46-4.14,6.54-8,12.26-11.34,20.05-11.57,52.54-11.57,72.59,0,5.72,3.31,9.8,7.2,12.26,11.34h2.77v10.49h0c-.37,7.29-5.36,14.52-15,20.08-20,11.57-52.55,11.57-72.59,0-9.64-5.56-14.66-12.79-15-20.08h0V365.19Z" style="opacity:0.15"></path><path d="M144.86,345.18c13.14,0,26.27,2.89,36.3,8.67,5.72,3.31,9.8,7.2,12.25,11.34h2.78v10.49h0c-.37,7.29-5.36,14.52-15,20.08-10,5.79-23.16,8.68-36.3,8.68Z" style="opacity:0.1"></path><path d="M172.89,350a56,56,0,0,1,8.27,3.86c5.72,3.31,9.8,7.2,12.25,11.34h2.78v10.49h0c-.37,7.29-5.36,14.52-15,20.08a56,56,0,0,1-8.27,3.87Z" style="opacity:0.1"></path><path d="M116.83,350a56.35,56.35,0,0,0-8.26,3.86c-5.72,3.31-9.8,7.2-12.26,11.34H93.54v10.49h0c.37,7.29,5.39,14.52,15,20.08a56.39,56.39,0,0,0,8.26,3.87Z" style="fill:#10B981;opacity:0.5"></path><path d="M181.16,344.24c20,11.58,20,30.34,0,41.91-17.54,10.12-44.61,11.39-64.53,3.8h0l-.79-.31a56.58,56.58,0,0,1-7.26-3.49c-16.71-9.65-19.49-24.3-8.33-35.61h0a39.22,39.22,0,0,1,8.32-6.29C128.61,332.67,161.11,332.67,181.16,344.24Z" style="fill:#10B981"></path><path d="M181.16,344.24c20,11.58,20,30.34,0,41.91-17.54,10.12-44.61,11.39-64.53,3.8h0l-.79-.31a56.58,56.58,0,0,1-7.26-3.49c-16.71-9.65-19.49-24.3-8.33-35.61h0a39.22,39.22,0,0,1,8.32-6.29C128.61,332.67,161.11,332.67,181.16,344.24Z" style="opacity:0.2"></path><path d="M100.24,350.54c-.21.24-7.22,7.64-5.36,18.28,1.77,10.19,16,18.76,21,20.82a56.58,56.58,0,0,1-7.26-3.49C91.86,376.5,89.08,361.85,100.24,350.54Z" style="fill:#f5f5f5;opacity:0.5"></path><path d="M189.48,379.85c.22-.24,7.23-7.63,5.37-18.28-1.78-10.18-16-18.75-20.95-20.81a55.11,55.11,0,0,1,7.25,3.48C197.87,353.89,200.65,368.54,189.48,379.85Z" style="fill:#f5f5f5;opacity:0.5"></path><ellipse cx="144.88" cy="365.16" rx="47.71" ry="27.55" style="fill:#10B981"></ellipse><ellipse cx="144.88" cy="365.16" rx="47.71" ry="27.55" style="fill:#fff;opacity:0.4"></ellipse><path d="M190.42,373.38c3.84-7.09,2.59-14.9-3.74-21.53a32.27,32.27,0,0,0-4-3.54,39.86,39.86,0,0,0-3.87-2.54c-.76-.45-1.54-.87-2.35-1.28,2,3.27,1.26,6.76-10,7.42-22,1.28,5.88,22.3,5.88,22.3S186.5,367.36,190.42,373.38Z" style="fill:#fff;opacity:0.2"></path><path d="M188.16,367.57c3.3-.37,4.93-3.76,3.65-7.58s-5-6.61-8.3-6.24-4.93,3.76-3.65,7.58S184.86,367.94,188.16,367.57Z" style="fill:#fff;opacity:0.5"></path><path d="M153.37,385.08c-1.08-8.16-36.77-30.77-36.77-30.77s-7.92-3.18-5.29-8.71a41.22,41.22,0,0,0-3.82,2.47c-.82.59-1.6,1.21-2.32,1.84-10.63,9.2-10.64,21.28,0,30.5.71.62,1.49,1.24,2.31,1.84,1.1.79,2.27,1.56,3.54,2.3s2.48,1.37,3.78,2c1,.49,2.12,1,3.22,1.38s2.21.84,3.34,1.21A70.42,70.42,0,0,0,132,391.68c.8.13,1.6.24,2.4.35a83.78,83.78,0,0,0,10.65.67,81.5,81.5,0,0,0,13-1.07S152.35,390.45,153.37,385.08Z" style="fill:#10B981"></path><path d="M153.37,385.08c-1.08-8.16-36.77-30.77-36.77-30.77s-7.92-3.18-5.29-8.71a41.22,41.22,0,0,0-3.82,2.47c-.82.59-1.6,1.21-2.32,1.84-10.63,9.2-10.64,21.28,0,30.5.71.62,1.49,1.24,2.31,1.84,1.1.79,2.27,1.56,3.54,2.3s2.48,1.37,3.78,2c1,.49,2.12,1,3.22,1.38s2.21.84,3.34,1.21A70.42,70.42,0,0,0,132,391.68c.8.13,1.6.24,2.4.35a83.78,83.78,0,0,0,10.65.67,81.5,81.5,0,0,0,13-1.07S152.35,390.45,153.37,385.08Z" style="fill:#fff;opacity:0.30000000000000004"></path><path d="M119.73,350.64c-13.31,7.69-13.85,20-1.62,28,.52.34,1.06.68,1.63,1,13.88,8,36.38,8,50.26,0s13.88-21,0-29c-.56-.32-1.15-.64-1.74-.94C154.29,342.64,133.05,343,119.73,350.64Z" style="fill:#10B981"></path><path d="M119.73,350.64c-13.31,7.69-13.85,20-1.62,28,.52.34,1.06.68,1.63,1,13.88,8,36.38,8,50.26,0s13.88-21,0-29c-.56-.32-1.15-.64-1.74-.94C154.29,342.64,133.05,343,119.73,350.64Z" style="opacity:0.2"></path><ellipse cx="144.88" cy="365.15" rx="33.98" ry="19.62" style="fill:#10B981"></ellipse><ellipse cx="144.88" cy="365.15" rx="33.98" ry="19.62" style="opacity:0.5"></ellipse><path d="M120.86,356.76c13.27-7.66,34.78-7.66,48.05,0,5.42,3.13,8.63,7.06,9.62,11.13-1,4.07-4.2,8-9.62,11.13-13.27,7.67-34.78,7.67-48,0-5.43-3.13-8.63-7.06-9.62-11.13C112.23,363.82,115.43,359.89,120.86,356.76Z" style="fill:#10B981"></path><path d="M120.86,356.76c13.27-7.66,34.78-7.66,48.05,0,5.42,3.13,8.63,7.06,9.62,11.13-1,4.07-4.2,8-9.62,11.13-13.27,7.67-34.78,7.67-48,0-5.43-3.13-8.63-7.06-9.62-11.13C112.23,363.82,115.43,359.89,120.86,356.76Z" style="opacity:0.35000000000000003"></path><path d="M166.28,371.06c0-.66,0-3.36,0-4.05,0-1.66-1.15-3.28-3.63-4.73l-.08,0c-4.56-2.63-9.28-2.29-13.48-1.23h0c-1.79.45-3.48,1-5,1.56a47.61,47.61,0,0,1-5.4,1.67h0a9.44,9.44,0,0,1-2.56.24,5.48,5.48,0,0,1-2.13-.56l.17-.12.53-.33a11.77,11.77,0,0,1,1.43-.7,9.86,9.86,0,0,1,7.55-.18L148,358.2v-4a20.73,20.73,0,0,0-11.91-.44,26.6,26.6,0,0,0-3.79,1.31l-4.36-2.51-5.19,3v4l1.78,1a4.34,4.34,0,0,0-.77,2.35c0,.67,0,3.35,0,4,0,1.66,1.19,3.27,3.7,4.72a15.09,15.09,0,0,0,7.18,2.06h0q.72,0,1.44,0a28.46,28.46,0,0,0,7.71-1.67c.51-.17,1-.34,1.5-.52l-4.39,4.4v4a21.38,21.38,0,0,0,16.8-.72l4.3,2.48,5.2-3v-4l-1.78-1A4.72,4.72,0,0,0,166.28,371.06Zm-11-.34a11.22,11.22,0,0,1-9.7.73c4.07-1.44,7.47-2.7,10.36-1.15Q155.67,370.51,155.31,370.72Z" style="fill:#10B981"></path><path d="M149.09,361h0c-1.79.45-3.48,1-5,1.56a47.61,47.61,0,0,1-5.4,1.67h0a9.44,9.44,0,0,1-2.56.24,5.41,5.41,0,0,1-2.48-.74c-1.67-1-1.91-2.38.52-4l.53-.33a13.56,13.56,0,0,1,1.43-.71,9.86,9.86,0,0,1,7.55-.17l4.36-4.39a20.73,20.73,0,0,0-11.91-.44,26.6,26.6,0,0,0-3.79,1.31l-4.36-2.51-5.19,3L127,358l0,0c-4.37,3.32-4.46,6.77.46,9.61a15.21,15.21,0,0,0,7.18,2.06h0c.48,0,1,0,1.44,0a28.45,28.45,0,0,0,7.71-1.66c5-1.67,9-3.63,12.39-1.7,2.25,1.31,1.63,2.94-.85,4.37a11.2,11.2,0,0,1-9.86.66L140.88,376a21.38,21.38,0,0,0,16.8-.73l4.3,2.49,5.2-3-4.3-2.49c4.33-3.34,4.82-7-.23-10l-.08,0C158,359.6,153.29,359.94,149.09,361Z" style="fill:#10B981"></path><g style="opacity:0.30000000000000004"><path d="M149.09,361h0c-1.79.45-3.48,1-5,1.56a47.61,47.61,0,0,1-5.4,1.67h0a9.44,9.44,0,0,1-2.56.24,5.41,5.41,0,0,1-2.48-.74c-1.67-1-1.91-2.38.52-4l.53-.33a13.56,13.56,0,0,1,1.43-.71,9.86,9.86,0,0,1,7.55-.17l4.36-4.39a20.73,20.73,0,0,0-11.91-.44,26.6,26.6,0,0,0-3.79,1.31l-4.36-2.51-5.19,3L127,358l0,0c-4.37,3.32-4.46,6.77.46,9.61a15.21,15.21,0,0,0,7.18,2.06h0c.48,0,1,0,1.44,0a28.45,28.45,0,0,0,7.71-1.66c5-1.67,9-3.63,12.39-1.7,2.25,1.31,1.63,2.94-.85,4.37a11.2,11.2,0,0,1-9.86.66L140.88,376a21.38,21.38,0,0,0,16.8-.73l4.3,2.49,5.2-3-4.3-2.49c4.33-3.34,4.82-7-.23-10l-.08,0C158,359.6,153.29,359.94,149.09,361Z" style="fill:#fff"></path></g><polygon points="122.72 355.53 127.97 353.15 132.27 355.05 127.92 352.53 122.72 355.53" style="fill:#f5f5f5;opacity:0.45"></polygon><path d="M135.45,353.9a24.26,24.26,0,0,1,11.18.38l-3,4.28,4.36-4.39A20.76,20.76,0,0,0,135.45,353.9Z" style="fill:#f5f5f5;opacity:0.45"></path><path d="M162.57,362.23l.08,0c5,3,4.56,6.61.23,10,3.83-4.17,3.14-7.08-1-9.49s-9.47-2.37-12.77-1.74C153.29,359.94,158,359.6,162.57,362.23Z" style="fill:#f5f5f5;opacity:0.45"></path><polygon points="162.88 372.23 166.18 374.77 161.99 377.72 167.18 374.71 162.88 372.23" style="fill:#f5f5f5;opacity:0.45"></polygon><path d="M154.11,371.32a11.15,11.15,0,0,1-8.29.72L140.88,376l4.57-4.58A11.17,11.17,0,0,0,154.11,371.32Z" style="fill:#f5f5f5;opacity:0.45"></path><path d="M138.62,364.24c-2,.77-4.79.64-6.22-.59s-.54-2.68,1.7-3.88c-2.43,1.59-2.19,3-.52,4a5.41,5.41,0,0,0,2.48.74A9.44,9.44,0,0,0,138.62,364.24Z" style="fill:#f5f5f5;opacity:0.45"></path><path d="M127,358.05c-.37.33-3.5,3.25-2.11,6.16,1.46,3.11,6,5.11,9.75,5.51h0a15.21,15.21,0,0,1-7.18-2.06C122.52,364.82,122.61,361.37,127,358.05Z" style="fill:#f5f5f5;opacity:0.45"></path></g><g id="freepik--coin--inject-2"><path d="M97.66,347.48c2.45-4.14,6.53-8,12.26-11.34,20-11.57,52.54-11.57,72.58,0,5.72,3.31,9.81,7.2,12.26,11.34h2.77V358h0c-.37,7.29-5.36,14.51-15,20.08-20,11.57-52.54,11.57-72.58,0-9.64-5.57-14.67-12.79-15-20.08h0V347.48Z" style="fill:#10B981"></path><path d="M97.66,347.48c2.45-4.14,6.53-8,12.26-11.34,20-11.57,52.54-11.57,72.58,0,5.72,3.31,9.81,7.2,12.26,11.34h2.77V358h0c-.37,7.29-5.36,14.51-15,20.08-20,11.57-52.54,11.57-72.58,0-9.64-5.57-14.67-12.79-15-20.08h0V347.48Z" style="opacity:0.15"></path><path d="M146.21,327.46c13.13,0,26.27,2.9,36.29,8.68,5.73,3.31,9.81,7.2,12.26,11.34h2.77V358h0c-.37,7.29-5.36,14.51-15,20.08-10,5.79-23.16,8.68-36.29,8.68Z" style="opacity:0.1"></path><path d="M174.24,332.27a56.94,56.94,0,0,1,8.26,3.87c5.73,3.31,9.81,7.2,12.26,11.34h2.77V358h0c-.37,7.29-5.36,14.51-15,20.08a55.91,55.91,0,0,1-8.26,3.87Z" style="opacity:0.1"></path><path d="M118.18,332.27a56.94,56.94,0,0,0-8.26,3.87c-5.73,3.31-9.81,7.2-12.26,11.34H94.89V358h0c.37,7.29,5.39,14.51,15,20.08a55.91,55.91,0,0,0,8.26,3.87Z" style="fill:#10B981;opacity:0.5"></path><path d="M182.5,326.53c20.05,11.57,20,30.34,0,41.91-17.54,10.12-44.61,11.39-64.53,3.8h0l-.8-.31a56.45,56.45,0,0,1-7.25-3.49c-16.72-9.65-19.49-24.3-8.33-35.61h0a39,39,0,0,1,8.32-6.29C130,315,162.46,315,182.5,326.53Z" style="fill:#10B981"></path><path d="M182.5,326.53c20.05,11.57,20,30.34,0,41.91-17.54,10.12-44.61,11.39-64.53,3.8h0l-.8-.31a56.45,56.45,0,0,1-7.25-3.49c-16.72-9.65-19.49-24.3-8.33-35.61h0a39,39,0,0,1,8.32-6.29C130,315,162.46,315,182.5,326.53Z" style="opacity:0.2"></path><path d="M101.59,332.83c-.21.24-7.22,7.64-5.37,18.28,1.78,10.18,16,18.76,21,20.82a56.45,56.45,0,0,1-7.25-3.49C93.2,358.79,90.43,344.14,101.59,332.83Z" style="fill:#f5f5f5;opacity:0.5"></path><path d="M190.83,362.14c.21-.24,7.22-7.64,5.37-18.28-1.78-10.18-16-18.75-20.95-20.81a55.11,55.11,0,0,1,7.25,3.48C199.22,336.18,202,350.83,190.83,362.14Z" style="fill:#f5f5f5;opacity:0.5"></path><path d="M180,366.92c18.64-10.75,18.64-28.2,0-38.95s-48.84-10.76-67.47,0-18.63,28.2,0,38.95S161.33,377.68,180,366.92Z" style="fill:#10B981"></path><path d="M180,366.92c18.64-10.75,18.64-28.2,0-38.95s-48.84-10.76-67.47,0-18.63,28.2,0,38.95S161.33,377.68,180,366.92Z" style="fill:#fff;opacity:0.4"></path><path d="M191.77,355.67c3.84-7.09,2.58-14.9-3.74-21.53A33.11,33.11,0,0,0,184,330.6a40.94,40.94,0,0,0-3.86-2.54c-.76-.45-1.54-.87-2.35-1.28,2,3.26,1.26,6.76-10,7.42-22,1.28,5.88,22.3,5.88,22.3S187.84,349.65,191.77,355.67Z" style="fill:#fff;opacity:0.2"></path><path d="M189.5,349.86c3.3-.37,4.94-3.76,3.66-7.58s-5-6.61-8.3-6.24-4.94,3.76-3.66,7.58S186.2,350.23,189.5,349.86Z" style="fill:#fff;opacity:0.5"></path><path d="M154.72,367.37c-1.08-8.16-36.78-30.77-36.78-30.77s-7.91-3.18-5.29-8.71a41,41,0,0,0-3.81,2.47c-.83.59-1.6,1.21-2.32,1.83-10.63,9.21-10.64,21.29,0,30.51.72.62,1.5,1.24,2.32,1.83a40.09,40.09,0,0,0,3.54,2.31c1.21.71,2.47,1.36,3.78,2,1,.49,2.12.95,3.21,1.38s2.21.84,3.35,1.21A71,71,0,0,0,133.37,374c.79.13,1.6.24,2.4.35a81.82,81.82,0,0,0,10.64.66,80.48,80.48,0,0,0,13-1.06S153.7,372.74,154.72,367.37Z" style="fill:#10B981"></path><path d="M154.72,367.37c-1.08-8.16-36.78-30.77-36.78-30.77s-7.91-3.18-5.29-8.71a41,41,0,0,0-3.81,2.47c-.83.59-1.6,1.21-2.32,1.83-10.63,9.21-10.64,21.29,0,30.51.72.62,1.5,1.24,2.32,1.83a40.09,40.09,0,0,0,3.54,2.31c1.21.71,2.47,1.36,3.78,2,1,.49,2.12.95,3.21,1.38s2.21.84,3.35,1.21A71,71,0,0,0,133.37,374c.79.13,1.6.24,2.4.35a81.82,81.82,0,0,0,10.64.66,80.48,80.48,0,0,0,13-1.06S153.7,372.74,154.72,367.37Z" style="fill:#fff;opacity:0.30000000000000004"></path><path d="M121.08,332.93c-13.32,7.69-13.86,20-1.63,28,.52.34,1.07.68,1.63,1,13.88,8,36.38,8,50.26,0s13.89-21,0-29c-.57-.32-1.15-.64-1.75-.94C155.64,324.93,134.39,325.25,121.08,332.93Z" style="fill:#10B981"></path><path d="M121.08,332.93c-13.32,7.69-13.86,20-1.63,28,.52.34,1.07.68,1.63,1,13.88,8,36.38,8,50.26,0s13.89-21,0-29c-.57-.32-1.15-.64-1.75-.94C155.64,324.93,134.39,325.25,121.08,332.93Z" style="opacity:0.2"></path><path d="M122.21,333.57c-13.27,7.66-13.27,20.08,0,27.74s34.78,7.66,48,0,13.27-20.08,0-27.74S135.47,325.91,122.21,333.57Z" style="fill:#10B981"></path><path d="M122.21,333.57c-13.27,7.66-13.27,20.08,0,27.74s34.78,7.66,48,0,13.27-20.08,0-27.74S135.47,325.91,122.21,333.57Z" style="opacity:0.5"></path><path d="M122.21,339c13.26-7.66,34.78-7.66,48,0,5.43,3.14,8.63,7.07,9.62,11.14-1,4.07-4.19,8-9.62,11.13-13.26,7.66-34.78,7.66-48,0-5.43-3.13-8.63-7.06-9.62-11.13C113.58,346.11,116.78,342.18,122.21,339Z" style="fill:#10B981"></path><path d="M122.21,339c13.26-7.66,34.78-7.66,48,0,5.43,3.14,8.63,7.07,9.62,11.14-1,4.07-4.19,8-9.62,11.13-13.26,7.66-34.78,7.66-48,0-5.43-3.13-8.63-7.06-9.62-11.13C113.58,346.11,116.78,342.18,122.21,339Z" style="opacity:0.35000000000000003"></path><path d="M167.62,353.35c0-.66,0-3.36,0-4.05,0-1.66-1.16-3.28-3.63-4.73l-.09-.05c-4.56-2.64-9.27-2.29-13.47-1.23h0c-1.78.45-3.48,1-5,1.56a47.53,47.53,0,0,1-5.39,1.67h0a9.47,9.47,0,0,1-2.57.24,5.43,5.43,0,0,1-2.12-.56l.17-.12c.16-.11.34-.22.53-.33a14.46,14.46,0,0,1,1.42-.71,9.93,9.93,0,0,1,7.56-.17l4.35-4.39v-4A20.72,20.72,0,0,0,137.4,336a24.22,24.22,0,0,0-3.78,1.31l-4.36-2.51-5.2,3v4l1.78,1a4.32,4.32,0,0,0-.76,2.35c0,.67,0,3.35,0,4,0,1.66,1.2,3.27,3.71,4.72A15.09,15.09,0,0,0,136,356h0c.47,0,1,0,1.43,0a28.29,28.29,0,0,0,7.71-1.67c.51-.17,1-.34,1.5-.52l-4.38,4.4v4a21.34,21.34,0,0,0,16.8-.73l4.3,2.49,5.2-3v-4l-1.79-1A4.57,4.57,0,0,0,167.62,353.35Zm-11-.34a10.46,10.46,0,0,1-1.21.6,11.17,11.17,0,0,1-8.5.12c4.07-1.43,7.47-2.69,10.37-1.15A6.85,6.85,0,0,1,156.66,353Z" style="fill:#10B981"></path><path d="M150.44,343.29h0c-1.78.45-3.48,1-5,1.56a47.53,47.53,0,0,1-5.39,1.67h0a9.47,9.47,0,0,1-2.57.24,5.37,5.37,0,0,1-2.47-.74c-1.67-1-1.91-2.38.52-4,.16-.11.34-.22.53-.33a12.53,12.53,0,0,1,1.42-.71,9.84,9.84,0,0,1,7.56-.17l4.35-4.39A20.72,20.72,0,0,0,137.4,336a24.22,24.22,0,0,0-3.78,1.31l-4.36-2.51-5.2,3,4.31,2.49,0,0c-4.37,3.32-4.46,6.77.46,9.6A15.1,15.1,0,0,0,136,352h0c.47,0,1,0,1.43,0a28.29,28.29,0,0,0,7.71-1.66c5-1.67,9-3.64,12.39-1.7,2.26,1.3,1.63,2.94-.84,4.37a10.46,10.46,0,0,1-1.21.6,11.15,11.15,0,0,1-8.65.06l-4.57,4.58a21.38,21.38,0,0,0,16.8-.73l4.3,2.49,5.2-3-4.3-2.48c4.32-3.35,4.82-7-.23-9.95l-.09-.05C159.35,341.88,154.64,342.23,150.44,343.29Z" style="fill:#10B981"></path><g style="opacity:0.30000000000000004"><path d="M150.44,343.29h0c-1.78.45-3.48,1-5,1.56a47.53,47.53,0,0,1-5.39,1.67h0a9.47,9.47,0,0,1-2.57.24,5.37,5.37,0,0,1-2.47-.74c-1.67-1-1.91-2.38.52-4,.16-.11.34-.22.53-.33a12.53,12.53,0,0,1,1.42-.71,9.84,9.84,0,0,1,7.56-.17l4.35-4.39A20.72,20.72,0,0,0,137.4,336a24.22,24.22,0,0,0-3.78,1.31l-4.36-2.51-5.2,3,4.31,2.49,0,0c-4.37,3.32-4.46,6.77.46,9.6A15.1,15.1,0,0,0,136,352h0c.47,0,1,0,1.43,0a28.29,28.29,0,0,0,7.71-1.66c5-1.67,9-3.64,12.39-1.7,2.26,1.3,1.63,2.94-.84,4.37a10.46,10.46,0,0,1-1.21.6,11.15,11.15,0,0,1-8.65.06l-4.57,4.58a21.38,21.38,0,0,0,16.8-.73l4.3,2.49,5.2-3-4.3-2.48c4.32-3.35,4.82-7-.23-9.95l-.09-.05C159.35,341.88,154.64,342.23,150.44,343.29Z" style="fill:#fff"></path></g><polygon points="124.06 337.82 129.31 335.44 133.62 337.33 129.26 334.82 124.06 337.82" style="fill:#f5f5f5;opacity:0.45"></polygon><path d="M136.8,336.19a24.26,24.26,0,0,1,11.18.38l-3,4.28,4.35-4.39A20.72,20.72,0,0,0,136.8,336.19Z" style="fill:#f5f5f5;opacity:0.45"></path><path d="M163.91,344.52l.09.05c5.05,3,4.55,6.6.23,9.95,3.83-4.17,3.14-7.09-1-9.49s-9.48-2.37-12.77-1.74C154.64,342.23,159.35,341.88,163.91,344.52Z" style="fill:#f5f5f5;opacity:0.45"></path><polygon points="164.23 354.52 167.53 357.06 163.33 360.01 168.53 357 164.23 354.52" style="fill:#f5f5f5;opacity:0.45"></polygon><path d="M155.45,353.61a11.19,11.19,0,0,1-8.28.72l-4.94,3.92,4.57-4.58A11.15,11.15,0,0,0,155.45,353.61Z" style="fill:#f5f5f5;opacity:0.45"></path><path d="M140,346.53c-2,.77-4.8.64-6.23-.59s-.54-2.68,1.71-3.88c-2.43,1.59-2.19,3-.52,4a5.37,5.37,0,0,0,2.47.74A9.47,9.47,0,0,0,140,346.53Z" style="fill:#f5f5f5;opacity:0.45"></path><path d="M128.33,340.34c-.37.33-3.5,3.24-2.12,6.16,1.47,3.11,6.06,5.11,9.76,5.51h0a15.1,15.1,0,0,1-7.17-2.07C123.87,347.11,124,343.66,128.33,340.34Z" style="fill:#f5f5f5;opacity:0.45"></path></g><g id="freepik--coin--inject-2"><path d="M87.69,335.76c2.46-4.15,6.54-8,12.26-11.34,20-11.57,52.54-11.57,72.58,0,5.73,3.3,9.81,7.19,12.26,11.34h2.78v10.48h0c-.37,7.29-5.36,14.52-15,20.08-20,11.58-52.54,11.58-72.58,0-9.64-5.56-14.66-12.79-15-20.08h0V335.76Z" style="fill:#10B981"></path><path d="M87.69,335.76c2.46-4.15,6.54-8,12.26-11.34,20-11.57,52.54-11.57,72.58,0,5.73,3.3,9.81,7.19,12.26,11.34h2.78v10.48h0c-.37,7.29-5.36,14.52-15,20.08-20,11.58-52.54,11.58-72.58,0-9.64-5.56-14.66-12.79-15-20.08h0V335.76Z" style="opacity:0.15"></path><path d="M136.24,315.74c13.13,0,26.27,2.89,36.29,8.68,5.73,3.3,9.81,7.19,12.26,11.34h2.78v10.48h0c-.37,7.29-5.36,14.52-15,20.08-10,5.79-23.16,8.68-36.29,8.68Z" style="opacity:0.1"></path><path d="M164.27,320.55a55.91,55.91,0,0,1,8.26,3.87c5.73,3.3,9.81,7.19,12.26,11.34h2.78v10.48h0c-.37,7.29-5.36,14.52-15,20.08a54.91,54.91,0,0,1-8.26,3.87Z" style="opacity:0.1"></path><path d="M108.21,320.55a56.39,56.39,0,0,0-8.26,3.87c-5.72,3.3-9.8,7.19-12.26,11.34H84.92v10.48h0c.37,7.29,5.39,14.52,15,20.08a55.37,55.37,0,0,0,8.26,3.87Z" style="fill:#10B981;opacity:0.5"></path><path d="M172.53,314.81c20.05,11.57,20.05,30.33,0,41.9-17.53,10.13-44.6,11.4-64.53,3.8h0l-.79-.31a53.47,53.47,0,0,1-7.26-3.49c-16.71-9.65-19.49-24.3-8.33-35.61h0a39,39,0,0,1,8.32-6.29C120,303.24,152.49,303.23,172.53,314.81Z" style="fill:#10B981"></path><path d="M172.53,314.81c20.05,11.57,20.05,30.33,0,41.9-17.53,10.13-44.6,11.4-64.53,3.8h0l-.79-.31a53.47,53.47,0,0,1-7.26-3.49c-16.71-9.65-19.49-24.3-8.33-35.61h0a39,39,0,0,1,8.32-6.29C120,303.24,152.49,303.23,172.53,314.81Z" style="opacity:0.2"></path><path d="M91.62,321.1c-.21.25-7.22,7.64-5.36,18.29,1.77,10.18,16,18.75,20.95,20.81a53.47,53.47,0,0,1-7.26-3.49C83.24,347.06,80.46,332.41,91.62,321.1Z" style="fill:#f5f5f5;opacity:0.5"></path><path d="M180.86,350.42c.22-.24,7.23-7.64,5.37-18.28-1.78-10.19-16-18.76-20.95-20.82a55.15,55.15,0,0,1,7.25,3.49C189.25,324.46,192,339.11,180.86,350.42Z" style="fill:#f5f5f5;opacity:0.5"></path><ellipse cx="136.26" cy="335.72" rx="47.71" ry="27.55" style="fill:#10B981"></ellipse><ellipse cx="136.26" cy="335.72" rx="47.71" ry="27.55" style="fill:#fff;opacity:0.4"></ellipse><path d="M181.8,344c3.84-7.09,2.59-14.91-3.74-21.53a31.48,31.48,0,0,0-4-3.54,39.28,39.28,0,0,0-3.87-2.55c-.76-.44-1.54-.87-2.35-1.27,2,3.26,1.26,6.76-10,7.41-22,1.29,5.88,22.3,5.88,22.3S177.87,337.93,181.8,344Z" style="fill:#fff;opacity:0.2"></path><path d="M179.53,338.13c3.3-.37,4.94-3.76,3.66-7.58s-5-6.61-8.3-6.24-4.94,3.76-3.65,7.58S176.23,338.5,179.53,338.13Z" style="fill:#fff;opacity:0.5"></path><path d="M144.75,355.65c-1.08-8.17-36.78-30.78-36.78-30.78s-7.91-3.17-5.28-8.71a42,42,0,0,0-3.82,2.47c-.83.6-1.6,1.21-2.32,1.84-10.63,9.2-10.64,21.29,0,30.5.72.63,1.5,1.24,2.32,1.84a40,40,0,0,0,3.54,2.3c1.21.71,2.48,1.37,3.78,2,1,.49,2.12,1,3.22,1.39s2.2.83,3.34,1.21a69.83,69.83,0,0,0,10.65,2.55c.8.13,1.6.25,2.4.35a82,82,0,0,0,10.65.67,80.36,80.36,0,0,0,13-1.07S143.73,361,144.75,355.65Z" style="fill:#10B981"></path><path d="M144.75,355.65c-1.08-8.17-36.78-30.78-36.78-30.78s-7.91-3.17-5.28-8.71a42,42,0,0,0-3.82,2.47c-.83.6-1.6,1.21-2.32,1.84-10.63,9.2-10.64,21.29,0,30.5.72.63,1.5,1.24,2.32,1.84a40,40,0,0,0,3.54,2.3c1.21.71,2.48,1.37,3.78,2,1,.49,2.12,1,3.22,1.39s2.2.83,3.34,1.21a69.83,69.83,0,0,0,10.65,2.55c.8.13,1.6.25,2.4.35a82,82,0,0,0,10.65.67,80.36,80.36,0,0,0,13-1.07S143.73,361,144.75,355.65Z" style="fill:#fff;opacity:0.30000000000000004"></path><path d="M111.11,321.21c-13.32,7.69-13.86,20-1.62,28,.51.34,1.06.68,1.62,1,13.89,8,36.38,8,50.27,0s13.88-21,0-29c-.56-.33-1.15-.64-1.74-.94C145.67,313.21,124.43,313.52,111.11,321.21Z" style="fill:#10B981"></path><path d="M111.11,321.21c-13.32,7.69-13.86,20-1.62,28,.51.34,1.06.68,1.62,1,13.89,8,36.38,8,50.27,0s13.88-21,0-29c-.56-.33-1.15-.64-1.74-.94C145.67,313.21,124.43,313.52,111.11,321.21Z" style="opacity:0.2"></path><ellipse cx="136.26" cy="335.72" rx="33.98" ry="19.62" style="fill:#10B981"></ellipse><ellipse cx="136.26" cy="335.72" rx="33.98" ry="19.62" style="opacity:0.5"></ellipse><path d="M112.24,327.32c13.27-7.66,34.78-7.66,48.05,0,5.42,3.13,8.63,7.06,9.61,11.13-1,4.08-4.19,8-9.61,11.14-13.27,7.66-34.78,7.66-48,0-5.43-3.13-8.63-7.06-9.62-11.14C103.61,334.38,106.81,330.45,112.24,327.32Z" style="fill:#10B981"></path><path d="M112.24,327.32c13.27-7.66,34.78-7.66,48.05,0,5.42,3.13,8.63,7.06,9.61,11.13-1,4.08-4.19,8-9.61,11.14-13.27,7.66-34.78,7.66-48,0-5.43-3.13-8.63-7.06-9.62-11.14C103.61,334.38,106.81,330.45,112.24,327.32Z" style="opacity:0.35000000000000003"></path><path d="M157.66,341.63c0-.66,0-3.36,0-4.06,0-1.66-1.15-3.27-3.63-4.72l-.08-.06c-4.57-2.63-9.28-2.29-13.48-1.23h0c-1.78.45-3.48,1-5,1.56a52.11,52.11,0,0,1-5.4,1.67h0a9.47,9.47,0,0,1-2.56.25,5.44,5.44,0,0,1-2.13-.57l.17-.11A4.72,4.72,0,0,1,126,334a11.87,11.87,0,0,1,1.43-.71,9.81,9.81,0,0,1,7.55-.17l4.36-4.4v-4a20.73,20.73,0,0,0-11.91-.43,24.33,24.33,0,0,0-3.79,1.31l-4.36-2.52-5.2,3v4l1.79,1a4.31,4.31,0,0,0-.77,2.35c0,.67,0,3.35,0,4,0,1.67,1.19,3.27,3.7,4.72a15.22,15.22,0,0,0,7.18,2.07h0c.48,0,1,0,1.44,0a28.83,28.83,0,0,0,7.71-1.66l1.5-.52-4.39,4.39v4a21.38,21.38,0,0,0,16.8-.73l4.3,2.48,5.2-3v-4l-1.78-1A4.77,4.77,0,0,0,157.66,341.63Zm-11-.35a11.22,11.22,0,0,1-9.7.73c4.07-1.44,7.47-2.69,10.36-1.15Q147.05,341.07,146.69,341.28Z" style="fill:#10B981"></path><path d="M140.47,331.56h0c-1.79.45-3.49,1-5,1.56a52.11,52.11,0,0,1-5.4,1.67h0a9.47,9.47,0,0,1-2.56.25,5.66,5.66,0,0,1-2.48-.74c-1.67-1-1.91-2.38.52-4L126,330a11.77,11.77,0,0,1,1.43-.7,9.81,9.81,0,0,1,7.55-.17l4.36-4.4a20.73,20.73,0,0,0-11.91-.43,24.33,24.33,0,0,0-3.79,1.31l-4.36-2.52-5.2,3,4.31,2.48,0,0c-4.37,3.32-4.46,6.76.46,9.6a15.22,15.22,0,0,0,7.18,2.07h0q.72,0,1.44,0a28.46,28.46,0,0,0,7.71-1.67c5-1.67,9-3.63,12.39-1.69,2.25,1.3,1.62,2.93-.85,4.36a11.23,11.23,0,0,1-9.86.67l-4.57,4.57a21.34,21.34,0,0,0,16.8-.72l4.3,2.48,5.2-3-4.3-2.48c4.32-3.35,4.82-7-.23-9.95l-.08-.06C149.38,330.16,144.67,330.5,140.47,331.56Z" style="fill:#10B981"></path><g style="opacity:0.30000000000000004"><path d="M140.47,331.56h0c-1.79.45-3.49,1-5,1.56a52.11,52.11,0,0,1-5.4,1.67h0a9.47,9.47,0,0,1-2.56.25,5.66,5.66,0,0,1-2.48-.74c-1.67-1-1.91-2.38.52-4L126,330a11.77,11.77,0,0,1,1.43-.7,9.81,9.81,0,0,1,7.55-.17l4.36-4.4a20.73,20.73,0,0,0-11.91-.43,24.33,24.33,0,0,0-3.79,1.31l-4.36-2.52-5.2,3,4.31,2.48,0,0c-4.37,3.32-4.46,6.76.46,9.6a15.22,15.22,0,0,0,7.18,2.07h0q.72,0,1.44,0a28.46,28.46,0,0,0,7.71-1.67c5-1.67,9-3.63,12.39-1.69,2.25,1.3,1.62,2.93-.85,4.36a11.23,11.23,0,0,1-9.86.67l-4.57,4.57a21.34,21.34,0,0,0,16.8-.72l4.3,2.48,5.2-3-4.3-2.48c4.32-3.35,4.82-7-.23-9.95l-.08-.06C149.38,330.16,144.67,330.5,140.47,331.56Z" style="fill:#fff"></path></g><polygon points="114.1 326.1 119.34 323.72 123.65 325.61 119.29 323.1 114.1 326.1" style="fill:#f5f5f5;opacity:0.45"></polygon><path d="M126.83,324.46a24.39,24.39,0,0,1,11.18.38l-3,4.29,4.36-4.4A20.76,20.76,0,0,0,126.83,324.46Z" style="fill:#f5f5f5;opacity:0.45"></path><path d="M154,332.79l.08.06c5.05,3,4.55,6.6.23,9.95,3.83-4.18,3.14-7.09-1-9.49s-9.48-2.38-12.77-1.75C144.67,330.5,149.38,330.16,154,332.79Z" style="fill:#f5f5f5;opacity:0.45"></path><polygon points="154.26 342.8 157.56 345.33 153.36 348.28 158.56 345.28 154.26 342.8" style="fill:#f5f5f5;opacity:0.45"></polygon><path d="M145.49,341.88a11.19,11.19,0,0,1-8.29.73l-4.94,3.91,4.57-4.57A11.18,11.18,0,0,0,145.49,341.88Z" style="fill:#f5f5f5;opacity:0.45"></path><path d="M130,334.8c-2,.77-4.79.64-6.23-.59s-.53-2.68,1.71-3.88c-2.43,1.6-2.19,3-.52,4a5.66,5.66,0,0,0,2.48.74A9.47,9.47,0,0,0,130,334.8Z" style="fill:#f5f5f5;opacity:0.45"></path><path d="M118.36,328.62c-.37.32-3.5,3.24-2.12,6.16,1.47,3.11,6.06,5.1,9.76,5.5h0a15.22,15.22,0,0,1-7.18-2.07C113.9,335.38,114,331.94,118.36,328.62Z" style="fill:#f5f5f5;opacity:0.45"></path></g><g id="freepik--coin--inject-2"><path d="M91.82,318.07c2.46-4.14,6.54-8,12.26-11.33,20-11.58,52.54-11.58,72.58,0,5.73,3.3,9.81,7.19,12.27,11.33h2.77v10.49h0c-.37,7.29-5.36,14.52-15,20.08-20,11.57-52.54,11.57-72.58,0-9.64-5.56-14.66-12.79-15-20.08h0V318.07Z" style="fill:#10B981"></path><path d="M91.82,318.07c2.46-4.14,6.54-8,12.26-11.33,20-11.58,52.54-11.58,72.58,0,5.73,3.3,9.81,7.19,12.27,11.33h2.77v10.49h0c-.37,7.29-5.36,14.52-15,20.08-20,11.57-52.54,11.57-72.58,0-9.64-5.56-14.66-12.79-15-20.08h0V318.07Z" style="opacity:0.15"></path><path d="M140.37,298.06c13.14,0,26.27,2.89,36.29,8.68,5.73,3.3,9.81,7.19,12.26,11.33h2.78v10.49h0c-.37,7.29-5.36,14.52-15,20.08-10,5.79-23.15,8.68-36.29,8.68Z" style="opacity:0.1"></path><path d="M168.4,302.87a54.45,54.45,0,0,1,8.26,3.87c5.73,3.3,9.81,7.19,12.26,11.33h2.78v10.49h0c-.37,7.29-5.36,14.52-15,20.08a55.43,55.43,0,0,1-8.26,3.87Z" style="opacity:0.1"></path><path d="M112.34,302.87a55.37,55.37,0,0,0-8.26,3.87c-5.72,3.3-9.8,7.19-12.26,11.33H89.05v10.49h0c.37,7.29,5.39,14.52,15,20.08a56.39,56.39,0,0,0,8.26,3.87Z" style="fill:#10B981;opacity:0.5"></path><path d="M176.67,297.12c20,11.58,20,30.34,0,41.91-17.54,10.13-44.61,11.39-64.53,3.8h0l-.79-.31a56.58,56.58,0,0,1-7.26-3.49c-16.71-9.65-19.49-24.3-8.33-35.61h0a39.55,39.55,0,0,1,8.32-6.29C124.12,285.55,156.62,285.55,176.67,297.12Z" style="fill:#10B981"></path><path d="M176.67,297.12c20,11.58,20,30.34,0,41.91-17.54,10.13-44.61,11.39-64.53,3.8h0l-.79-.31a56.58,56.58,0,0,1-7.26-3.49c-16.71-9.65-19.49-24.3-8.33-35.61h0a39.55,39.55,0,0,1,8.32-6.29C124.12,285.55,156.62,285.55,176.67,297.12Z" style="opacity:0.2"></path><path d="M95.75,303.42c-.21.24-7.22,7.64-5.36,18.28,1.77,10.19,16,18.76,21,20.82a56.58,56.58,0,0,1-7.26-3.49C87.37,329.38,84.59,314.73,95.75,303.42Z" style="fill:#f5f5f5;opacity:0.5"></path><path d="M185,332.74c.22-.25,7.23-7.64,5.37-18.29-1.78-10.18-16-18.75-21-20.81a53.92,53.92,0,0,1,7.25,3.49C193.38,306.78,196.16,321.42,185,332.74Z" style="fill:#f5f5f5;opacity:0.5"></path><ellipse cx="140.39" cy="318.04" rx="47.71" ry="27.55" style="fill:#10B981"></ellipse><ellipse cx="140.39" cy="318.04" rx="47.71" ry="27.55" style="fill:#fff;opacity:0.4"></ellipse><path d="M185.93,326.26c3.84-7.08,2.59-14.9-3.74-21.53a33.1,33.1,0,0,0-4-3.54,39.86,39.86,0,0,0-3.87-2.54c-.76-.45-1.54-.87-2.35-1.28,2,3.27,1.26,6.76-10,7.42-22,1.28,5.88,22.3,5.88,22.3S182,320.25,185.93,326.26Z" style="fill:#fff;opacity:0.2"></path><path d="M183.67,320.45c3.3-.37,4.93-3.76,3.65-7.58s-5-6.61-8.3-6.24-4.93,3.76-3.65,7.58S180.37,320.82,183.67,320.45Z" style="fill:#fff;opacity:0.5"></path><path d="M148.88,338c-1.08-8.16-36.77-30.77-36.77-30.77s-7.92-3.17-5.29-8.71A41.22,41.22,0,0,0,103,301c-.82.6-1.6,1.21-2.32,1.84-10.63,9.2-10.64,21.29,0,30.5.71.62,1.49,1.24,2.31,1.84,1.1.79,2.27,1.56,3.54,2.3s2.48,1.37,3.78,2c1,.49,2.12,1,3.22,1.39s2.2.83,3.34,1.2a69.24,69.24,0,0,0,10.65,2.56c.8.13,1.6.25,2.4.35a83.78,83.78,0,0,0,10.65.67,81.5,81.5,0,0,0,13-1.07S147.86,343.33,148.88,338Z" style="fill:#10B981"></path><path d="M148.88,338c-1.08-8.16-36.77-30.77-36.77-30.77s-7.92-3.17-5.29-8.71A41.22,41.22,0,0,0,103,301c-.82.6-1.6,1.21-2.32,1.84-10.63,9.2-10.64,21.29,0,30.5.71.62,1.49,1.24,2.31,1.84,1.1.79,2.27,1.56,3.54,2.3s2.48,1.37,3.78,2c1,.49,2.12,1,3.22,1.39s2.2.83,3.34,1.2a69.24,69.24,0,0,0,10.65,2.56c.8.13,1.6.25,2.4.35a83.78,83.78,0,0,0,10.65.67,81.5,81.5,0,0,0,13-1.07S147.86,343.33,148.88,338Z" style="fill:#fff;opacity:0.30000000000000004"></path><path d="M115.24,303.53c-13.31,7.68-13.85,20-1.62,28,.52.34,1.06.68,1.63,1,13.88,8,36.38,8,50.26,0s13.88-21,0-29c-.56-.33-1.15-.65-1.74-.95C149.8,295.52,128.56,295.84,115.24,303.53Z" style="fill:#10B981"></path><path d="M115.24,303.53c-13.31,7.68-13.85,20-1.62,28,.52.34,1.06.68,1.63,1,13.88,8,36.38,8,50.26,0s13.88-21,0-29c-.56-.33-1.15-.65-1.74-.95C149.8,295.52,128.56,295.84,115.24,303.53Z" style="opacity:0.2"></path><path d="M116.37,304.17c-13.27,7.66-13.27,20.08,0,27.74s34.78,7.66,48,0,13.27-20.08,0-27.74S129.64,296.51,116.37,304.17Z" style="fill:#10B981"></path><path d="M116.37,304.17c-13.27,7.66-13.27,20.08,0,27.74s34.78,7.66,48,0,13.27-20.08,0-27.74S129.64,296.51,116.37,304.17Z" style="opacity:0.5"></path><path d="M116.37,309.64c13.27-7.66,34.78-7.66,48,0,5.42,3.13,8.63,7.06,9.62,11.13-1,4.08-4.2,8-9.62,11.14-13.27,7.66-34.78,7.66-48,0-5.43-3.14-8.63-7.07-9.62-11.14C107.74,316.7,110.94,312.77,116.37,309.64Z" style="fill:#10B981"></path><path d="M116.37,309.64c13.27-7.66,34.78-7.66,48,0,5.42,3.13,8.63,7.06,9.62,11.13-1,4.08-4.2,8-9.62,11.14-13.27,7.66-34.78,7.66-48,0-5.43-3.14-8.63-7.07-9.62-11.14C107.74,316.7,110.94,312.77,116.37,309.64Z" style="opacity:0.35000000000000003"></path><path d="M161.79,323.94c0-.66,0-3.36,0-4.05,0-1.66-1.15-3.28-3.63-4.72,0,0-.06,0-.08-.06-4.56-2.63-9.28-2.29-13.48-1.23h0c-1.79.45-3.48,1-5,1.56a50.1,50.1,0,0,1-5.4,1.68h0a9.44,9.44,0,0,1-2.56.24,5.48,5.48,0,0,1-2.13-.56l.17-.12.53-.33a11.77,11.77,0,0,1,1.43-.7,9.81,9.81,0,0,1,7.55-.17l4.36-4.4v-4a20.73,20.73,0,0,0-11.91-.43,24.33,24.33,0,0,0-3.79,1.31l-4.36-2.52-5.19,3v4l1.78,1a4.34,4.34,0,0,0-.77,2.36c0,.67,0,3.34,0,4,0,1.67,1.19,3.27,3.7,4.72a15.22,15.22,0,0,0,7.18,2.07h0q.72,0,1.44,0a28.46,28.46,0,0,0,7.71-1.67l1.5-.51-4.39,4.39v4a21.34,21.34,0,0,0,16.8-.72l4.3,2.48,5.2-3v-4l-1.78-1A4.78,4.78,0,0,0,161.79,323.94Zm-11-.34a11.22,11.22,0,0,1-9.7.73c4.07-1.44,7.47-2.69,10.36-1.15Q151.18,323.39,150.82,323.6Z" style="fill:#10B981"></path><path d="M144.6,313.88h0c-1.79.45-3.48,1-5,1.56a50.1,50.1,0,0,1-5.4,1.68h0a9.44,9.44,0,0,1-2.56.24,5.52,5.52,0,0,1-2.48-.73c-1.67-1-1.91-2.38.52-4l.53-.33a13.56,13.56,0,0,1,1.43-.71,9.9,9.9,0,0,1,7.55-.17l4.36-4.39a20.73,20.73,0,0,0-11.91-.43,24.33,24.33,0,0,0-3.79,1.31l-4.36-2.52-5.19,3,4.3,2.49,0,0c-4.37,3.32-4.46,6.77.46,9.61a15.09,15.09,0,0,0,7.18,2.06h0q.72,0,1.44,0a28.46,28.46,0,0,0,7.71-1.67c5-1.67,9-3.63,12.39-1.69,2.25,1.3,1.63,2.93-.85,4.36a11.2,11.2,0,0,1-9.86.66l-4.57,4.58a21.33,21.33,0,0,0,16.8-.73l4.3,2.49,5.2-3-4.3-2.49c4.33-3.34,4.82-7-.23-9.94,0,0-.06,0-.08-.06C153.52,312.48,148.8,312.82,144.6,313.88Z" style="fill:#10B981"></path><g style="opacity:0.30000000000000004"><path d="M144.6,313.88h0c-1.79.45-3.48,1-5,1.56a50.1,50.1,0,0,1-5.4,1.68h0a9.44,9.44,0,0,1-2.56.24,5.52,5.52,0,0,1-2.48-.73c-1.67-1-1.91-2.38.52-4l.53-.33a13.56,13.56,0,0,1,1.43-.71,9.9,9.9,0,0,1,7.55-.17l4.36-4.39a20.73,20.73,0,0,0-11.91-.43,24.33,24.33,0,0,0-3.79,1.31l-4.36-2.52-5.19,3,4.3,2.49,0,0c-4.37,3.32-4.46,6.77.46,9.61a15.09,15.09,0,0,0,7.18,2.06h0q.72,0,1.44,0a28.46,28.46,0,0,0,7.71-1.67c5-1.67,9-3.63,12.39-1.69,2.25,1.3,1.63,2.93-.85,4.36a11.2,11.2,0,0,1-9.86.66l-4.57,4.58a21.33,21.33,0,0,0,16.8-.73l4.3,2.49,5.2-3-4.3-2.49c4.33-3.34,4.82-7-.23-9.94,0,0-.06,0-.08-.06C153.52,312.48,148.8,312.82,144.6,313.88Z" style="fill:#fff"></path></g><polygon points="118.23 308.41 123.48 306.04 127.78 307.93 123.43 305.41 118.23 308.41" style="fill:#f5f5f5;opacity:0.45"></polygon><path d="M131,306.78a24.26,24.26,0,0,1,11.18.38l-3,4.28,4.36-4.39A20.76,20.76,0,0,0,131,306.78Z" style="fill:#f5f5f5;opacity:0.45"></path><path d="M158.08,315.11s.06,0,.08.06c5.05,2.95,4.56,6.6.23,9.94,3.83-4.17,3.14-7.08-1-9.49s-9.48-2.37-12.77-1.74C148.8,312.82,153.52,312.48,158.08,315.11Z" style="fill:#f5f5f5;opacity:0.45"></path><polygon points="158.39 325.11 161.69 327.65 157.49 330.6 162.69 327.6 158.39 325.11" style="fill:#f5f5f5;opacity:0.45"></polygon><path d="M149.62,324.2a11.15,11.15,0,0,1-8.29.72l-4.94,3.92,4.57-4.58A11.13,11.13,0,0,0,149.62,324.2Z" style="fill:#f5f5f5;opacity:0.45"></path><path d="M134.13,317.12c-2,.77-4.79.64-6.22-.59s-.54-2.68,1.7-3.88c-2.43,1.6-2.19,3-.52,4a5.52,5.52,0,0,0,2.48.73A9.44,9.44,0,0,0,134.13,317.12Z" style="fill:#f5f5f5;opacity:0.45"></path><path d="M122.49,310.93c-.37.33-3.5,3.25-2.11,6.16,1.46,3.11,6.05,5.11,9.75,5.51h0a15.09,15.09,0,0,1-7.18-2.06C118,317.7,118.12,314.25,122.49,310.93Z" style="fill:#f5f5f5;opacity:0.45"></path></g><g id="freepik--coin--inject-2"><path d="M135.41,303.16c2.45-4.14,6.53-8,12.26-11.34,20-11.57,52.54-11.57,72.58,0,5.73,3.31,9.81,7.2,12.26,11.34h2.77v10.49h0c-.37,7.29-5.36,14.52-15,20.08-20,11.57-52.54,11.57-72.58,0-9.64-5.56-14.67-12.79-15-20.08h0V303.16Z" style="fill:#10B981"></path><path d="M135.41,303.16c2.45-4.14,6.53-8,12.26-11.34,20-11.57,52.54-11.57,72.58,0,5.73,3.31,9.81,7.2,12.26,11.34h2.77v10.49h0c-.37,7.29-5.36,14.52-15,20.08-20,11.57-52.54,11.57-72.58,0-9.64-5.56-14.67-12.79-15-20.08h0V303.16Z" style="opacity:0.15"></path><path d="M184,283.14c13.13,0,26.27,2.9,36.29,8.68,5.73,3.31,9.81,7.2,12.26,11.34h2.77v10.49h0c-.37,7.29-5.36,14.52-15,20.08-10,5.79-23.16,8.68-36.29,8.68Z" style="opacity:0.1"></path><path d="M212,288a55.87,55.87,0,0,1,8.26,3.86c5.73,3.31,9.81,7.2,12.26,11.34h2.77v10.49h0c-.37,7.29-5.36,14.52-15,20.08A55.91,55.91,0,0,1,212,337.6Z" style="opacity:0.1"></path><path d="M155.93,288a55.87,55.87,0,0,0-8.26,3.86c-5.72,3.31-9.81,7.2-12.26,11.34h-2.77v10.49h0c.37,7.29,5.39,14.52,15,20.08a55.91,55.91,0,0,0,8.26,3.87Z" style="fill:#10B981;opacity:0.5"></path><path d="M220.25,282.21c20.05,11.58,20,30.34,0,41.91-17.53,10.12-44.61,11.39-64.53,3.8h0l-.8-.31a56.45,56.45,0,0,1-7.25-3.49c-16.72-9.65-19.49-24.3-8.33-35.61h0a39,39,0,0,1,8.32-6.29C167.71,270.64,200.21,270.64,220.25,282.21Z" style="fill:#10B981"></path><path d="M220.25,282.21c20.05,11.58,20,30.34,0,41.91-17.53,10.12-44.61,11.39-64.53,3.8h0l-.8-.31a56.45,56.45,0,0,1-7.25-3.49c-16.72-9.65-19.49-24.3-8.33-35.61h0a39,39,0,0,1,8.32-6.29C167.71,270.64,200.21,270.64,220.25,282.21Z" style="opacity:0.2"></path><path d="M139.34,288.51c-.21.24-7.22,7.64-5.37,18.28,1.78,10.19,16,18.76,20.95,20.82a56.45,56.45,0,0,1-7.25-3.49C131,314.47,128.18,299.82,139.34,288.51Z" style="fill:#f5f5f5;opacity:0.5"></path><path d="M228.58,317.82c.21-.24,7.22-7.63,5.37-18.28-1.78-10.18-16-18.75-20.95-20.81a55.11,55.11,0,0,1,7.25,3.48C237,291.86,239.74,306.51,228.58,317.82Z" style="fill:#f5f5f5;opacity:0.5"></path><path d="M217.71,322.6c18.64-10.75,18.64-28.19,0-39s-48.84-10.76-67.47,0-18.63,28.2,0,39S199.08,333.36,217.71,322.6Z" style="fill:#10B981"></path><path d="M217.71,322.6c18.64-10.75,18.64-28.19,0-39s-48.84-10.76-67.47,0-18.63,28.2,0,39S199.08,333.36,217.71,322.6Z" style="fill:#fff;opacity:0.4"></path><path d="M229.52,311.35c3.84-7.09,2.59-14.9-3.74-21.53a32.38,32.38,0,0,0-4.05-3.54,40.94,40.94,0,0,0-3.86-2.54c-.76-.45-1.54-.87-2.35-1.28,2,3.27,1.26,6.76-10,7.42-22,1.28,5.88,22.3,5.88,22.3S225.59,305.33,229.52,311.35Z" style="fill:#fff;opacity:0.2"></path><path d="M227.25,305.54c3.3-.37,4.94-3.76,3.66-7.58s-5-6.61-8.3-6.24-4.94,3.76-3.65,7.58S224,305.91,227.25,305.54Z" style="fill:#fff;opacity:0.5"></path><path d="M192.47,323.05c-1.08-8.16-36.78-30.77-36.78-30.77s-7.91-3.18-5.29-8.71a41,41,0,0,0-3.81,2.47,29.33,29.33,0,0,0-2.32,1.84c-10.63,9.2-10.64,21.28,0,30.5.72.62,1.5,1.24,2.32,1.84,1.09.79,2.27,1.56,3.54,2.3s2.47,1.37,3.78,2c1,.49,2.12.95,3.21,1.38s2.21.84,3.35,1.21a69.85,69.85,0,0,0,10.65,2.56c.79.13,1.6.24,2.4.35a83.67,83.67,0,0,0,10.65.67,81.59,81.59,0,0,0,13-1.07S191.45,328.42,192.47,323.05Z" style="fill:#10B981"></path><path d="M192.47,323.05c-1.08-8.16-36.78-30.77-36.78-30.77s-7.91-3.18-5.29-8.71a41,41,0,0,0-3.81,2.47,29.33,29.33,0,0,0-2.32,1.84c-10.63,9.2-10.64,21.28,0,30.5.72.62,1.5,1.24,2.32,1.84,1.09.79,2.27,1.56,3.54,2.3s2.47,1.37,3.78,2c1,.49,2.12.95,3.21,1.38s2.21.84,3.35,1.21a69.85,69.85,0,0,0,10.65,2.56c.79.13,1.6.24,2.4.35a83.67,83.67,0,0,0,10.65.67,81.59,81.59,0,0,0,13-1.07S191.45,328.42,192.47,323.05Z" style="fill:#fff;opacity:0.30000000000000004"></path><path d="M158.83,288.61c-13.32,7.69-13.86,20-1.63,28,.52.34,1.07.68,1.63,1,13.88,8,36.38,8,50.26,0s13.89-21,0-29c-.57-.32-1.15-.64-1.75-.94C193.39,280.61,172.14,280.93,158.83,288.61Z" style="fill:#10B981"></path><path d="M158.83,288.61c-13.32,7.69-13.86,20-1.63,28,.52.34,1.07.68,1.63,1,13.88,8,36.38,8,50.26,0s13.89-21,0-29c-.57-.32-1.15-.64-1.75-.94C193.39,280.61,172.14,280.93,158.83,288.61Z" style="opacity:0.2"></path><ellipse cx="183.98" cy="303.12" rx="33.98" ry="19.62" style="fill:#10B981"></ellipse><ellipse cx="183.98" cy="303.12" rx="33.98" ry="19.62" style="opacity:0.5"></ellipse><path d="M160,294.73c13.26-7.67,34.78-7.67,48,0,5.43,3.13,8.63,7.06,9.62,11.13-1,4.07-4.19,8-9.62,11.13-13.26,7.66-34.78,7.66-48,0-5.43-3.13-8.63-7.06-9.62-11.13C151.33,301.79,154.53,297.86,160,294.73Z" style="fill:#10B981"></path><path d="M160,294.73c13.26-7.67,34.78-7.67,48,0,5.43,3.13,8.63,7.06,9.62,11.13-1,4.07-4.19,8-9.62,11.13-13.26,7.66-34.78,7.66-48,0-5.43-3.13-8.63-7.06-9.62-11.13C151.33,301.79,154.53,297.86,160,294.73Z" style="opacity:0.35000000000000003"></path><path d="M205.37,309c0-.66,0-3.36,0-4,0-1.66-1.16-3.28-3.63-4.73l-.09-.05c-4.56-2.63-9.27-2.29-13.47-1.23h0c-1.78.45-3.48,1-5,1.56a47.53,47.53,0,0,1-5.39,1.67h0a9.47,9.47,0,0,1-2.57.24,5.43,5.43,0,0,1-2.12-.56l.17-.12c.16-.11.34-.22.53-.33a12.42,12.42,0,0,1,1.42-.7,9.88,9.88,0,0,1,7.56-.18l4.35-4.39v-4a20.72,20.72,0,0,0-11.91-.44,26.48,26.48,0,0,0-3.78,1.31L167,290.5l-5.2,3v4l1.78,1a4.32,4.32,0,0,0-.76,2.35c0,.67,0,3.35,0,4,0,1.66,1.2,3.27,3.71,4.72a15.09,15.09,0,0,0,7.17,2.06h0c.47,0,1,0,1.43,0a28.29,28.29,0,0,0,7.71-1.67c.52-.17,1-.34,1.5-.52l-4.38,4.4v4a21.38,21.38,0,0,0,16.8-.72l4.3,2.48,5.2-3v-4l-1.79-1A4.57,4.57,0,0,0,205.37,309Zm-11-.34a10.46,10.46,0,0,1-1.21.6,11.22,11.22,0,0,1-8.5.13c4.07-1.44,7.47-2.7,10.37-1.15Q194.77,308.48,194.41,308.69Z" style="fill:#10B981"></path><path d="M188.19,299h0c-1.78.45-3.48,1-5,1.56a47.53,47.53,0,0,1-5.39,1.67h0a9.47,9.47,0,0,1-2.57.24,5.37,5.37,0,0,1-2.47-.74c-1.67-1-1.91-2.38.52-4,.16-.11.34-.22.53-.33a14.46,14.46,0,0,1,1.42-.71,9.88,9.88,0,0,1,7.56-.17l4.35-4.39a20.72,20.72,0,0,0-11.91-.44,26.48,26.48,0,0,0-3.78,1.31L167,290.5l-5.2,3,4.31,2.49,0,0c-4.37,3.32-4.46,6.77.46,9.6a15.1,15.1,0,0,0,7.17,2.07h0c.47,0,1,0,1.43,0a28.29,28.29,0,0,0,7.71-1.66c5-1.67,9-3.64,12.39-1.7,2.26,1.3,1.63,2.94-.84,4.37a10.46,10.46,0,0,1-1.21.6,11.15,11.15,0,0,1-8.65.06L180,313.93a21.38,21.38,0,0,0,16.8-.73l4.3,2.49,5.2-3L202,310.2c4.32-3.34,4.82-7-.23-9.95l-.09-.05C197.1,297.57,192.39,297.91,188.19,299Z" style="fill:#10B981"></path><g style="opacity:0.30000000000000004"><path d="M188.19,299h0c-1.78.45-3.48,1-5,1.56a47.53,47.53,0,0,1-5.39,1.67h0a9.47,9.47,0,0,1-2.57.24,5.37,5.37,0,0,1-2.47-.74c-1.67-1-1.91-2.38.52-4,.16-.11.34-.22.53-.33a14.46,14.46,0,0,1,1.42-.71,9.88,9.88,0,0,1,7.56-.17l4.35-4.39a20.72,20.72,0,0,0-11.91-.44,26.48,26.48,0,0,0-3.78,1.31L167,290.5l-5.2,3,4.31,2.49,0,0c-4.37,3.32-4.46,6.77.46,9.6a15.1,15.1,0,0,0,7.17,2.07h0c.47,0,1,0,1.43,0a28.29,28.29,0,0,0,7.71-1.66c5-1.67,9-3.64,12.39-1.7,2.26,1.3,1.63,2.94-.84,4.37a10.46,10.46,0,0,1-1.21.6,11.15,11.15,0,0,1-8.65.06L180,313.93a21.38,21.38,0,0,0,16.8-.73l4.3,2.49,5.2-3L202,310.2c4.32-3.34,4.82-7-.23-9.95l-.09-.05C197.1,297.57,192.39,297.91,188.19,299Z" style="fill:#fff"></path></g><polygon points="161.81 293.5 167.06 291.12 171.37 293.02 167.01 290.5 161.81 293.5" style="fill:#f5f5f5;opacity:0.45"></polygon><path d="M174.55,291.87a24.26,24.26,0,0,1,11.18.38l-3,4.28,4.35-4.39A20.72,20.72,0,0,0,174.55,291.87Z" style="fill:#f5f5f5;opacity:0.45"></path><path d="M201.66,300.2l.09.05c5.05,3,4.55,6.61.23,9.95,3.83-4.17,3.14-7.08-1-9.49s-9.48-2.37-12.77-1.74C192.39,297.91,197.1,297.57,201.66,300.2Z" style="fill:#f5f5f5;opacity:0.45"></path><polygon points="201.98 310.2 205.28 312.74 201.08 315.69 206.28 312.69 201.98 310.2" style="fill:#f5f5f5;opacity:0.45"></polygon><path d="M193.2,309.29a11.19,11.19,0,0,1-8.28.72L180,313.93l4.57-4.58A11.15,11.15,0,0,0,193.2,309.29Z" style="fill:#f5f5f5;opacity:0.45"></path><path d="M177.72,302.21c-2,.77-4.8.64-6.23-.59s-.54-2.68,1.71-3.88c-2.43,1.59-2.19,3-.52,4a5.37,5.37,0,0,0,2.47.74A9.47,9.47,0,0,0,177.72,302.21Z" style="fill:#f5f5f5;opacity:0.45"></path><path d="M166.08,296c-.37.33-3.5,3.24-2.12,6.16,1.47,3.11,6.06,5.11,9.76,5.51h0a15.1,15.1,0,0,1-7.17-2.07C161.62,302.79,161.71,299.34,166.08,296Z" style="fill:#f5f5f5;opacity:0.45"></path></g><g id="freepik--coin--inject-2"><path d="M247.79,316.79c2.37,4.17,3.7,9.61,3.7,16.17,0,23-16.27,50.92-36.33,62.41-5.73,3.28-11.15,4.86-16,4.91l-1.38,2.39-9.09-5.21v0c-6.13-3.94-9.9-11.81-9.9-22.86,0-23,16.26-50.92,36.33-62.41,9.65-5.53,18.43-6.26,24.93-3h0l9.09,5.21Z" style="fill:#10B981"></path><path d="M247.79,316.79c2.37,4.17,3.7,9.61,3.7,16.17,0,23-16.27,50.92-36.33,62.41-5.73,3.28-11.15,4.86-16,4.91l-1.38,2.39-9.09-5.21v0c-6.13-3.94-9.9-11.81-9.9-22.86,0-23,16.26-50.92,36.33-62.41,9.65-5.53,18.43-6.26,24.93-3h0l9.09,5.21Z" style="opacity:0.15"></path><path d="M240.85,368.47c-6.58,11.3-15.66,21.16-25.69,26.9-5.73,3.28-11.15,4.86-16,4.91l-1.38,2.39-9.09-5.21v0c-6.13-3.94-9.9-11.81-9.9-22.86,0-11.49,4.07-24.22,10.64-35.52Z" style="opacity:0.1"></path><path d="M222.65,390.19a56.69,56.69,0,0,1-7.49,5.18c-5.73,3.28-11.15,4.86-16,4.91l-1.38,2.39-9.09-5.21v0c-6.13-3.94-9.9-11.81-9.9-22.86a55.09,55.09,0,0,1,.78-9Z" style="opacity:0.1"></path><path d="M250.71,342a56,56,0,0,0,.78-9c0-6.56-1.33-12-3.7-16.17l1.39-2.38-9.09-5.21h0c-6.5-3.3-15.28-2.57-24.93,3a56.69,56.69,0,0,0-7.49,5.18Z" style="fill:#10B981;opacity:0.5"></path><path d="M223.49,400.14c-20.06,11.49-36.33,2.18-36.33-20.8,0-20.11,12.45-44,29-57.37h0c.22-.18.44-.36.67-.53a55.23,55.23,0,0,1,6.65-4.51c16.73-9.58,30.82-4.7,35,10.52h0a38.54,38.54,0,0,1,1.29,10.28C259.82,360.71,243.55,388.65,223.49,400.14Z" style="fill:#10B981"></path><path d="M223.49,400.14c-20.06,11.49-36.33,2.18-36.33-20.8,0-20.11,12.45-44,29-57.37h0c.22-.18.44-.36.67-.53a55.23,55.23,0,0,1,6.65-4.51c16.73-9.58,30.82-4.7,35,10.52h0a38.54,38.54,0,0,1,1.29,10.28C259.82,360.71,243.55,388.65,223.49,400.14Z" style="opacity:0.2"></path><path d="M258.53,327.45c-.1-.31-3-10-13.16-13.69-9.72-3.53-24.29,4.47-28.53,7.68a55.23,55.23,0,0,1,6.65-4.51C240.22,307.35,254.31,312.23,258.53,327.45Z" style="fill:#f5f5f5;opacity:0.5"></path><path d="M188.45,389.62c.1.31,3,10,13.16,13.69,9.72,3.53,24.29-4.47,28.53-7.68a55.23,55.23,0,0,1-6.65,4.51C206.76,409.72,192.67,404.84,188.45,389.62Z" style="fill:#f5f5f5;opacity:0.5"></path><ellipse cx="223.51" cy="358.57" rx="47.47" ry="27.52" transform="translate(-198.87 369.84) rotate(-59.59)" style="fill:#10B981"></ellipse><ellipse cx="223.51" cy="358.57" rx="47.47" ry="27.52" transform="translate(-198.87 369.84) rotate(-59.59)" style="fill:#fff;opacity:0.4"></ellipse><path d="M239.18,315.33c8.06.22,14.21,5.17,16.79,13.91a32.06,32.06,0,0,1,1,5.23,39.26,39.26,0,0,1,.28,4.58c0,.88,0,1.76-.07,2.66-1.84-3.33-5.24-4.44-11.43,4.9-12.12,18.27-16.39-16.12-16.39-16.12S242.43,321.69,239.18,315.33Z" style="fill:#fff;opacity:0.2"></path><path d="M243.08,320.16c2-2.65,5.73-2.37,8.4.63s3.23,7.58,1.26,10.23-5.73,2.38-8.4-.62S241.11,322.82,243.08,320.16Z" style="fill:#fff;opacity:0.5"></path><path d="M210.49,341.38c6.54,5,8.27,46.9,8.27,46.9s-1.21,8.38,4.9,8.87a40.58,40.58,0,0,1-4,2.05c-.93.42-1.84.78-2.75,1.09-13.29,4.57-23.78-1.42-26.44-15.15-.18-.93-.33-1.9-.43-2.9a40.11,40.11,0,0,1-.23-4.19c0-1.39.06-2.81.18-4.23.09-1.14.23-2.3.41-3.46s.38-2.31.62-3.47a69.64,69.64,0,0,1,3.12-10.43c.28-.75.58-1.49.89-2.23a83.2,83.2,0,0,1,4.75-9.49,81,81,0,0,1,7.45-10.67S205.32,339.59,210.49,341.38Z" style="fill:#10B981"></path><path d="M210.49,341.38c6.54,5,8.27,46.9,8.27,46.9s-1.21,8.38,4.9,8.87a40.58,40.58,0,0,1-4,2.05c-.93.42-1.84.78-2.75,1.09-13.29,4.57-23.78-1.42-26.44-15.15-.18-.93-.33-1.9-.43-2.9a40.11,40.11,0,0,1-.23-4.19c0-1.39.06-2.81.18-4.23.09-1.14.23-2.3.41-3.46s.38-2.31.62-3.47a69.64,69.64,0,0,1,3.12-10.43c.28-.75.58-1.49.89-2.23a83.2,83.2,0,0,1,4.75-9.49,81,81,0,0,1,7.45-10.67S205.32,339.59,210.49,341.38Z" style="fill:#fff;opacity:0.30000000000000004"></path><path d="M223.51,387.4c-13.33,7.63-24.23,2-25.1-12.51,0-.61-.06-1.25-.06-1.9,0-15.91,11.26-35.26,25.16-43.22s25.16-1.51,25.16,14.41c0,.64,0,1.31-.06,2C247.74,361.66,236.84,379.77,223.51,387.4Z" style="fill:#10B981"></path><path d="M223.51,387.4c-13.33,7.63-24.23,2-25.1-12.51,0-.61-.06-1.25-.06-1.9,0-15.91,11.26-35.26,25.16-43.22s25.16-1.51,25.16,14.41c0,.64,0,1.31-.06,2C247.74,361.66,236.84,379.77,223.51,387.4Z" style="opacity:0.2"></path><path d="M223.52,386.11c-13.28,7.61-24.05,1.44-24.05-13.77s10.77-33.71,24.05-41.31,24-1.44,24,13.77S236.8,378.51,223.52,386.11Z" style="fill:#10B981"></path><path d="M223.52,386.11c-13.28,7.61-24.05,1.44-24.05-13.77s10.77-33.71,24.05-41.31,24-1.44,24,13.77S236.8,378.51,223.52,386.11Z" style="opacity:0.5"></path><path d="M218.77,383.4c13.29-7.61,24-26.11,24-41.32,0-6.22-1.8-10.92-4.84-13.79-4-1.18-9-.37-14.46,2.74-13.28,7.6-24.05,26.1-24.05,41.31,0,6.22,1.8,10.93,4.84,13.8C208.33,387.31,213.34,386.51,218.77,383.4Z" style="fill:#10B981"></path><path d="M218.77,383.4c13.29-7.61,24-26.11,24-41.32,0-6.22-1.8-10.92-4.84-13.79-4-1.18-9-.37-14.46,2.74-13.28,7.6-24.05,26.1-24.05,41.31,0,6.22,1.8,10.93,4.84,13.8C208.33,387.31,213.34,386.51,218.77,383.4Z" style="opacity:0.35000000000000003"></path><path d="M229.93,352.49a5.51,5.51,0,0,0-3.53-.51h0a26.68,26.68,0,0,0-3.84.88c-1,.28-1.86.52-2.63.69,0-1.92,1.13-4.08,3.68-5.74l.55-.34a9.84,9.84,0,0,1,1.32-.64c.11-.05.22-.07.33-.11h0l0,0c2-.67,3.16.15,3.53,2.07l5.95-5.31a5.46,5.46,0,0,0-2.38-3.62c-.59-.34-2.66-1.53-3.26-1.86a5.33,5.33,0,0,0-2.87-.73v-2.11l-3.55-2.05-5.16,3,0,5-.05,0c-5,3.7-8,8.84-8.06,14.54,0,2.8.67,4.38,1.76,5.2h0c.22.17,3.13,1.74,3.55,2.06h0a3.4,3.4,0,0,0,.71.42c1.46.6,3.38.27,5.25-.25,1.43-.38,2.84-.85,4-1.12,0,.06,0,.1,0,.16,0,2.61-1.73,4.87-4.19,6.29a7.58,7.58,0,0,1-1.11.55,5.62,5.62,0,0,1-.67.21,3.75,3.75,0,0,1-.12-.6l-3.55-2L209.42,372c.36,2.14,1.17,3.45,2.27,4.15.65.43,3.07,1.75,3.6,2.08a4.81,4.81,0,0,0,3.05.62v2l3.54,2.05,5.17-3v-5c5-3.76,8.42-9.07,8.48-15v-.1c0-3-.83-4.57-2.1-5.31Z" style="fill:#10B981"></path><path d="M230,354h0a27.59,27.59,0,0,0-3.83.87,20.17,20.17,0,0,1-4.11.93h0a2.09,2.09,0,0,1-1.48-.39,2.25,2.25,0,0,1-.58-1.83c0-1.94,1.1-4.13,3.68-5.81l.55-.34a9.84,9.84,0,0,1,1.32-.64c2.27-.9,3.48-.08,3.88,1.95l5.95-5.31c-.78-3.1-2.66-4.49-5.52-4.14a12.25,12.25,0,0,0-3,.86l0-5-5.17,3v5l-.05,0c-5,3.7-8.05,8.84-8.07,14.54,0,2.8.68,4.38,1.77,5.2h0a3.4,3.4,0,0,0,.71.42c1.46.6,3.38.27,5.25-.25,3.91-1,7.61-2.8,7.59,1.09,0,2.61-1.73,4.87-4.18,6.29a7.65,7.65,0,0,1-1.12.55c-2.73,1.11-4.06-.34-4.33-2.44L213,374.06c.92,5.54,4.92,5.54,8.93,3.83l0,5,5.17-3v-5c5-3.76,8.42-9.07,8.48-15v-.1C235.56,354.53,232.93,353.67,230,354Z" style="fill:#10B981"></path><g style="opacity:0.30000000000000004"><path d="M230,354h0a27.59,27.59,0,0,0-3.83.87,20.17,20.17,0,0,1-4.11.93h0a2.09,2.09,0,0,1-1.48-.39,2.25,2.25,0,0,1-.58-1.83c0-1.94,1.1-4.13,3.68-5.81l.55-.34a9.84,9.84,0,0,1,1.32-.64c2.27-.9,3.48-.08,3.88,1.95l5.95-5.31c-.78-3.1-2.66-4.49-5.52-4.14a12.25,12.25,0,0,0-3,.86l0-5-5.17,3v5l-.05,0c-5,3.7-8.05,8.84-8.07,14.54,0,2.8.68,4.38,1.77,5.2h0a3.4,3.4,0,0,0,.71.42c1.46.6,3.38.27,5.25-.25,3.91-1,7.61-2.8,7.59,1.09,0,2.61-1.73,4.87-4.18,6.29a7.65,7.65,0,0,1-1.12.55c-2.73,1.11-4.06-.34-4.33-2.44L213,374.06c.92,5.54,4.92,5.54,8.93,3.83l0,5,5.17-3v-5c5-3.76,8.42-9.07,8.48-15v-.1C235.56,354.53,232.93,353.67,230,354Z" style="fill:#fff"></path></g><polygon points="221.62 338.12 226.27 336.09 226.77 340.18 226.78 335.14 221.62 338.12" style="fill:#f5f5f5;opacity:0.45"></polygon><path d="M229.33,339.4a5.19,5.19,0,0,1,5.2,3.83l-5.19,5.54,5.94-5.31C234.27,339.88,232.15,338.83,229.33,339.4Z" style="fill:#f5f5f5;opacity:0.45"></path><path d="M235.54,359.82v.1c-.06,5.92-3.45,11.23-8.48,15,5.5-5.14,7.67-9.71,7.69-14.53s-2.64-6.33-4.8-6.35C232.93,353.67,235.56,354.53,235.54,359.82Z" style="fill:#f5f5f5;opacity:0.45"></path><polygon points="227.06 374.91 226.5 379.67 221.88 382.87 227.05 379.89 227.06 374.91" style="fill:#f5f5f5;opacity:0.45"></polygon><path d="M223.51,371c-4.12,1.91-4.72-1.34-4.72-1.34L213,374.06l6.21-5.53C219.45,370.63,220.78,372.08,223.51,371Z" style="fill:#f5f5f5;opacity:0.45"></path><path d="M222,355.83c-1.64.58-2.92-.45-2.57-2.71a7.51,7.51,0,0,1,4.19-5.32c-2.58,1.68-3.68,3.87-3.68,5.81a2.25,2.25,0,0,0,.58,1.83A2.09,2.09,0,0,0,222,355.83Z" style="fill:#f5f5f5;opacity:0.45"></path><path d="M221.56,343.14a23.4,23.4,0,0,0-6.37,8.62c-2,5.09-1.41,9.43.07,11.11h0c-1.09-.82-1.78-2.4-1.77-5.2C213.51,352,216.53,346.84,221.56,343.14Z" style="fill:#f5f5f5;opacity:0.45"></path><polygon points="248.18 322.36 256.03 328.33 246.89 324.58 237.75 338.8 245.6 323.83 237.75 317.86 246.89 321.61 256.03 307.39 248.18 322.36" style="fill:#fff"></polygon></g></g><g id="freepik--speech-bubble--inject-2"><g id="freepik--speech-bubble--inject-2"><g id="freepik--speech-bubble--inject-2"><path d="M131.3,108.66,127,100.6l3.45-9.95V84.56l-10.55,6.09v6.09l4.54,7.86a.67.67,0,0,0,.3.28h0Z" style="fill:#10B981"></path><path d="M131.3,108.66,127,100.6l3.45-9.95V84.56l-10.55,6.09v6.09l4.54,7.86a.67.67,0,0,0,.3.28h0Z" style="opacity:0.2"></path><path d="M154.39,37.34a7,7,0,0,0-3.16-5.48l-2.58-1.48a7,7,0,0,0-6.32,0l-39.5,22.84a7,7,0,0,0-3.17,5.48v43.46a7,7,0,0,0,3.17,5.48l2.57,1.49a7,7,0,0,0,6.33,0l14.8-8.55,4.53,7.84a.67.67,0,0,0,1.22-.11l4.79-13.81,14.16-8.22a7,7,0,0,0,3.16-5.48Z" style="fill:#10B981"></path><path d="M99.66,102.16a7,7,0,0,0,3.17,5.48l2.57,1.49a7.07,7.07,0,0,0,5.79.25c-1.49.57-2.62-.27-2.62-2.08V63.84a6.51,6.51,0,0,1,.92-3.12l-8.9-5.14a6.53,6.53,0,0,0-.93,3.12Z" style="opacity:0.2"></path><path d="M154.29,36.44c-.37-1.34-1.59-1.77-3-.93L111.73,58.37a6.21,6.21,0,0,0-2.23,2.36l-8.9-5.14a6.44,6.44,0,0,1,2.23-2.36l39.49-22.85a7,7,0,0,1,6.33,0l2.59,1.49A7,7,0,0,1,154.29,36.44Z" style="fill:#fff;opacity:0.30000000000000004"></path></g><path d="M137.82,79.85a17.91,17.91,0,0,1-5,5.92v4.31l-3.5,2V87.94a15.45,15.45,0,0,1-4.14,1.4,6.82,6.82,0,0,1-3.23-.09l1.89-6.77a7.09,7.09,0,0,0,3.18.11,11,11,0,0,0,3.56-1.32q3.31-1.92,3.32-4.13c0-.78-.32-1.18-1-1.19a11.83,11.83,0,0,0-3,.58,21.36,21.36,0,0,1-3.85.8,3.32,3.32,0,0,1-2.66-.9c-.74-.69-1.1-2-1.1-3.87a14.53,14.53,0,0,1,1.8-6.78,17.63,17.63,0,0,1,5.22-6V55.56l3.5-2v4.2A14.25,14.25,0,0,1,136,56.67a7,7,0,0,1,2.73-.06l-1.78,6.74a8.71,8.71,0,0,0-5.66,1.17,7.55,7.55,0,0,0-2.5,2.13,3.88,3.88,0,0,0-.79,2.22c0,.73.31,1.09.93,1.1a12.07,12.07,0,0,0,3-.61,19.51,19.51,0,0,1,3.86-.81,3.37,3.37,0,0,1,2.65.88c.75.67,1.13,1.95,1.13,3.84A14.24,14.24,0,0,1,137.82,79.85Z" style="fill:#fafafa"></path></g></g></svg>